<?xml version="1.0" standalone="no"?><!DOCTYPE svg PUBLIC "-//W3C//DTD SVG 1.1//EN" "http://www.w3.org/Graphics/SVG/1.1/DTD/svg11.dtd"><svg t="1656572129419" class="icon" viewBox="0 0 1024 1024" version="1.1" xmlns="http://www.w3.org/2000/svg" p-id="10825" xmlns:xlink="http://www.w3.org/1999/xlink" width="32" height="32"><defs><style type="text/css">@font-face { font-family: feedback-iconfont; src: url("//at.alicdn.com/t/font_1031158_u69w8yhxdu.woff2?t=1630033759944") format("woff2"), url("//at.alicdn.com/t/font_1031158_u69w8yhxdu.woff?t=1630033759944") format("woff"), url("//at.alicdn.com/t/font_1031158_u69w8yhxdu.ttf?t=1630033759944") format("truetype"); }
</style></defs><path d="M256.5 384h-128c-23.6 0-42.7-19.1-42.7-42.7s19.1-42.7 42.7-42.7h128c23.5 0 42.7-19.1 42.7-42.7V128c0-23.6 19.1-42.7 42.7-42.7s42.7 19.1 42.7 42.7v128c-0.1 70.6-57.5 128-128.1 128zM896.5 384h-128c-70.6 0-128-57.4-128-128V128c0-23.6 19.1-42.7 42.7-42.7s42.7 19.1 42.7 42.7v128c0 23.5 19.1 42.7 42.7 42.7h128c23.6 0 42.7 19.1 42.7 42.7-0.1 23.5-19.2 42.6-42.8 42.6zM683.2 938.7c-23.6 0-42.7-19.1-42.7-42.7V768c0-70.6 57.4-128 128-128h128c23.6 0 42.7 19.1 42.7 42.7s-19.1 42.7-42.7 42.7h-128c-23.5 0-42.7 19.1-42.7 42.7v128c0 23.5-19 42.6-42.6 42.6zM341.8 938.7c-23.6 0-42.7-19.1-42.7-42.7V768c0-23.5-19.1-42.7-42.7-42.7h-128c-23.6 0-42.7-19.1-42.7-42.7s19.1-42.7 42.7-42.7h128c70.6 0 128 57.4 128 128v128c0.1 23.7-19 42.8-42.6 42.8z" p-id="10826" fill="#ffffff"></path></svg>