<?xml version="1.0" standalone="no"?><!DOCTYPE svg PUBLIC "-//W3C//DTD SVG 1.1//EN" "http://www.w3.org/Graphics/SVG/1.1/DTD/svg11.dtd"><svg t="1656572024369" class="icon" viewBox="0 0 1024 1024" version="1.1" xmlns="http://www.w3.org/2000/svg" p-id="10425" xmlns:xlink="http://www.w3.org/1999/xlink" width="32" height="32"><defs><style type="text/css">@font-face { font-family: feedback-iconfont; src: url("//at.alicdn.com/t/font_1031158_u69w8yhxdu.woff2?t=1630033759944") format("woff2"), url("//at.alicdn.com/t/font_1031158_u69w8yhxdu.woff?t=1630033759944") format("woff"), url("//at.alicdn.com/t/font_1031158_u69w8yhxdu.ttf?t=1630033759944") format("truetype"); }
</style></defs><path d="M859.1 64.7H685.3c-6.6 0-12.9 2.6-17.6 7.3-4.7 4.7-7.3 11-7.3 17.6v49.7c0 6.6 2.6 12.9 7.3 17.6 4.7 4.7 11 7.3 17.6 7.3h173.8V338c0 6.6 2.6 12.9 7.3 17.6 4.7 4.7 11 7.3 17.6 7.3h49.7c6.6 0 12.9-2.6 17.6-7.3 4.7-4.7 7.3-11 7.3-17.6V164c0-26.3-10.5-51.6-29.1-70.2-18.8-18.7-44-29.1-70.4-29.1zM64.5 164v173.8c0 13.7 11.1 24.8 24.8 24.8H139c13.7 0 24.8-11.1 24.8-24.8V164h173.8c13.7 0 24.8-11.1 24.8-24.8V89.5c0-13.7-11.1-24.8-24.8-24.8H163.8c-54.8 0-99.3 44.4-99.3 99.3z m794.6 521.5v173.8H685.3c-6.6 0-12.9 2.6-17.6 7.3-4.7 4.7-7.3 11-7.3 17.6v49.7c0 6.6 2.6 12.9 7.3 17.6 4.7 4.7 11 7.3 17.6 7.3h173.8c26.3 0 51.6-10.5 70.2-29.1s29.1-43.9 29.1-70.2v-174c0-6.6-2.6-12.9-7.3-17.6-4.7-4.7-11-7.3-17.6-7.3H884c-6.6 0-12.9 2.6-17.6 7.3-4.7 4.7-7.3 11-7.3 17.6zM139 660.6H89.3c-6.6 0-12.9 2.6-17.6 7.3-4.7 4.7-7.3 11-7.3 17.6v173.8c0 26.3 10.5 51.6 29.1 70.2s43.9 29.1 70.2 29.1h173.8c6.6 0 12.9-2.6 17.6-7.3 4.7-4.7 7.3-11 7.3-17.6V884c0-6.6-2.6-12.9-7.3-17.6-4.7-4.7-11-7.3-17.6-7.3H163.8V685.5c0-6.6-2.6-12.9-7.3-17.6-4.6-4.6-10.9-7.3-17.5-7.3z m0 0" fill="#ffffff" p-id="10426"></path></svg>